<svg width="334" height="294" viewBox="0 0 334 294" fill="none" xmlns="http://www.w3.org/2000/svg">
<path fill-rule="evenodd" clip-rule="evenodd" d="M84.9954 22.7274C109.988 20.7785 135.007 18.99 160.026 17.3638C209.149 14.1554 258.313 11.6429 307.503 9.6402C308.348 21.4839 309.257 33.3265 310.167 45.1701C312.51 75.6807 314.854 106.198 316.089 136.758C316.957 158.019 317.194 179.331 316.087 200.59C315.998 202.297 315.933 204.037 315.868 205.796C315.529 214.863 315.171 224.44 311.389 232.759C307.21 241.948 298.77 248.995 288.881 253.412C288.064 253.774 288.453 254.948 289.389 254.653L289.447 254.861C289.211 254.9 288.975 254.953 288.741 255.017C287.291 255.419 288.08 257.353 289.532 256.988C297.042 255.126 295.768 263.96 293.621 266.226C291.787 268.173 288.556 269.047 285.852 269.639C281.978 270.484 277.927 270.856 273.911 271.225C272.379 271.366 270.852 271.507 269.343 271.673C258.282 272.87 247.218 274.03 236.149 275.14C214.461 277.321 192.761 279.34 171.051 281.248C149.327 283.156 127.609 284.952 105.872 286.699C100.308 287.147 94.7236 287.543 89.1342 287.94C72.4685 289.122 55.754 290.308 39.3563 292.894C39.3011 292.91 39.289 292.935 39.2479 292.95C32.9977 254.884 31.1127 216.464 29.2286 178.064C28.9172 171.715 28.6057 165.367 28.2745 159.021C28.1675 156.958 28.0615 154.891 27.9553 152.819C25.8364 111.49 23.6383 68.6157 11.3478 28.6289C27.2378 27.934 43.1313 26.4666 59.006 25.001C67.676 24.2006 76.3404 23.4007 84.9954 22.7274ZM292.397 247.769C292.029 248.116 292.627 248.54 292.999 248.243C296.618 245.337 300.221 242.394 303.674 239.337C304.28 238.8 303.276 238.052 302.668 238.563C299.152 241.538 295.746 244.655 292.397 247.769ZM290.291 243.085C289.85 243.224 290.092 243.783 290.536 243.693C295.076 242.776 299.007 240.237 301.258 236.618C301.708 235.892 300.424 235.348 299.958 236.05C297.728 239.406 294.479 241.84 290.291 243.085ZM133.651 57.5501C133.356 57.5684 133.389 57.9779 133.683 57.9597C181.86 57.0425 230.976 55.3437 278.725 49.2148C279.548 49.1014 279.488 47.9951 278.632 48.0482C266.48 48.8143 254.35 49.8503 242.218 50.8864C230.223 51.9108 218.226 52.9353 206.206 53.6994C182.041 55.2353 157.843 56.5363 133.651 57.5501ZM131.332 277.475C130.771 277.522 130.83 278.267 131.392 278.232C137.93 277.901 144.48 277.545 151.03 277.188L151.054 277.187C151.84 277.138 151.752 276.034 150.968 276.095C149.335 276.208 147.703 276.321 146.072 276.434C141.154 276.774 136.238 277.114 131.332 277.475ZM126.848 280.334C126.431 280.41 126.47 280.907 126.894 280.918C133.33 281.155 140.173 280.655 146.564 279.972C147.389 279.884 147.306 278.829 146.475 278.843C140.039 278.968 133.184 279.318 126.848 280.334ZM35.2701 62.8028C34.5944 62.8197 34.6924 63.6992 35.3419 63.7088C57.1834 64.1752 79.3027 63.1653 100.957 60.5628C101.655 60.4696 101.594 59.5255 100.879 59.5823C78.9957 61.2511 57.2241 62.3768 35.2701 62.8028Z" fill="white"/>
<path d="M312.523 226.84C312.598 226.605 312.836 226.464 313.081 226.509C313.326 226.553 313.505 226.77 313.5 227.018C313.377 233.67 312.602 241.34 310.358 247.76L310.358 247.761C308.751 252.326 306.318 256.761 302.925 260.528C301.268 262.391 299.344 264.104 297.26 265.586C296.195 266.348 295.073 267.039 293.906 267.671C293.376 268.243 292.887 268.667 292.441 268.914C291.986 269.165 291.463 269.289 290.988 269.023C290.831 268.936 290.732 268.773 290.726 268.596C290.721 268.419 290.81 268.254 290.96 268.162C293.806 266.424 295.648 264.003 295.178 260.693C294.928 258.979 293.316 257.816 290.969 257.196C288.657 256.584 285.838 256.567 283.601 256.991C283.344 257.039 283.09 256.881 283.018 256.628L282.959 256.419C282.886 256.162 283.028 255.896 283.282 255.815C297.303 251.371 308.822 238.346 312.523 226.84Z" fill="#B9B9B5" stroke="#9A9A9A" stroke-linejoin="round"/>
<path d="M302.667 238.564C303.275 238.052 304.279 238.801 303.673 239.337C300.22 242.395 296.617 245.337 292.997 248.243C292.626 248.541 292.028 248.116 292.396 247.769C295.745 244.655 299.151 241.538 302.667 238.564Z" fill="#9A9A9A"/>
<path d="M299.957 236.049C300.424 235.347 301.708 235.891 301.258 236.617C299.006 240.237 295.075 242.775 290.536 243.693C290.091 243.783 289.85 243.224 290.29 243.084C294.479 241.839 297.727 239.405 299.957 236.049Z" fill="#9A9A9A"/>
<path d="M278.632 48.0484C279.488 47.9954 279.548 49.1017 278.725 49.2151C230.975 55.3439 181.86 57.0427 133.683 57.9599C133.388 57.9782 133.356 57.5686 133.651 57.5503C157.843 56.5365 182.041 55.2355 206.206 53.6996C230.385 52.1628 254.466 49.572 278.632 48.0484Z" fill="#9A9A9A"/>
<path d="M150.966 276.095C151.751 276.033 151.839 277.138 151.053 277.187C144.495 277.544 137.936 277.9 131.39 278.231C130.829 278.266 130.77 277.522 131.33 277.474C137.865 276.994 144.416 276.551 150.966 276.095Z" fill="#9A9A9A"/>
<path d="M146.473 278.844C147.304 278.83 147.388 279.885 146.563 279.973C140.171 280.656 133.328 281.155 126.892 280.919C126.468 280.907 126.429 280.411 126.846 280.335C133.183 279.319 140.038 278.968 146.473 278.844Z" fill="#9A9A9A"/>
<path d="M100.88 59.5833C101.595 59.5265 101.655 60.4707 100.958 60.5638C79.3031 63.1663 57.1838 64.1763 35.3423 63.7098C34.6928 63.7002 34.5948 62.8208 35.2704 62.8038C57.2245 62.3778 78.9961 61.2522 100.88 59.5833Z" fill="#9A9A9A"/>
<path d="M40.6318 38.9727C41.3045 38.9114 41.5347 39.9813 40.8829 40.1398C36.5412 41.1777 31.779 41.0462 27.3984 40.3238C26.7991 40.2248 26.9927 39.365 27.5881 39.4079C32.0592 39.8136 36.1946 39.4531 40.6318 38.9727Z" fill="white"/>
<path d="M40.3316 34.6912C40.968 34.7171 41.0741 35.6264 40.4024 35.7017C33.9873 36.335 27.4227 36.2453 20.9883 36.2028C20.3528 36.191 20.0914 35.2785 20.7542 35.0768C21.6407 34.8454 22.5081 34.5448 23.3567 34.1751C23.7006 34.0522 23.9626 34.5698 23.6506 34.7468C23.5272 34.7978 23.4049 34.8628 23.2965 34.9268C28.9604 34.6424 34.6965 34.3812 40.3316 34.6912Z" fill="white"/>
<path d="M94.3481 131.81L97.5087 172.814L96.9116 172.86L65.4671 134.037L53.4521 134.963L58.4781 200.165L72.2094 199.106L69.043 158.028L69.4907 157.994L101.016 196.886L112.882 195.971L107.856 130.769L94.3481 131.81Z" fill="#100923"/>
<path d="M164.882 174.231C164.191 175.62 163.242 176.866 162.087 177.902C160.911 178.968 159.552 179.811 158.075 180.39C156.431 180.973 154.717 181.332 152.977 181.459C149.92 181.821 146.824 181.276 144.073 179.892C141.287 178.245 139.059 175.8 137.677 172.872C135.913 169.257 134.895 165.324 134.683 161.307C134.297 157.378 134.706 153.411 135.886 149.644C136.786 146.531 138.617 143.768 141.132 141.727C143.593 139.777 146.605 138.651 149.742 138.508C151.515 138.371 153.299 138.513 155.029 138.927C156.617 139.309 158.12 139.983 159.461 140.915C160.764 141.802 161.873 142.943 162.723 144.27C162.782 144.514 162.802 144.766 162.78 145.017L171.665 134.64C170.492 133.312 169.166 132.128 167.715 131.113C164.982 129.291 161.959 127.949 158.775 127.144C155.288 126.342 151.698 126.086 148.132 126.386C142.717 126.729 137.491 128.506 132.989 131.535C128.659 134.656 125.316 138.956 123.359 143.923C120.951 149.732 120.045 156.055 120.722 162.308C121.035 168.602 122.873 174.726 126.076 180.152C128.888 184.727 132.948 188.403 137.778 190.745C142.021 192.634 146.614 193.606 151.257 193.598C155.901 193.59 160.49 192.601 164.725 190.697C167.795 189.369 170.601 187.498 173.008 185.175C173.89 184.256 174.693 183.264 175.407 182.21L165.198 173.455C165.132 173.728 165.026 173.99 164.882 174.231Z" fill="#100923"/>
<path d="M214.726 122.53L196.964 123.899L187.254 161.537L187.297 161.482L202.379 157.14L206.922 138.158L207.444 138.117L211.964 149.039L213.722 153.336L226.465 149.198L214.726 122.53Z" fill="url(#paint0_linear_1265_1033)"/>
<path d="M234.574 121.001L235.449 132.353L255.375 130.817L259.526 184.667L273.108 183.62L268.958 129.771L288.958 128.229L288.083 116.876L234.574 121.001Z" fill="#100923"/>
<path d="M242.135 186.006L227.21 187.157L219.077 167.348L197.786 174.549C197.161 177.152 196.696 178.916 196.696 178.916L194.075 189.711L179.15 190.862L180.308 186.415L180.893 184.266L181.983 179.899L185.579 166.174L200.745 161.323L214.447 156.961L227.265 152.818L242.135 186.006Z" fill="#100923"/>
<path d="M109.371 115.096C109.321 115.798 109.122 116.398 108.774 116.897C108.427 117.428 108.007 117.804 107.514 118.027C107.052 118.247 106.532 118.297 105.952 118.176C105.407 118.084 104.877 117.754 104.364 117.184C103.92 116.705 103.647 116.167 103.545 115.571C103.472 114.941 103.353 114.329 103.187 113.737C102.758 112.019 102.184 110.262 101.464 108.468C99.5058 108.627 97.5627 108.769 95.6344 108.895C93.7061 109.02 91.7788 109.161 89.8525 109.319C89.6215 110.159 89.4231 111.013 89.2573 111.881C89.1232 112.747 88.988 113.597 88.8518 114.431C88.7348 115.074 88.6358 115.747 88.5545 116.45C88.4713 117.123 88.2248 117.726 87.8151 118.26C87.3189 118.928 86.7567 119.313 86.1285 119.418C85.5341 119.552 84.9747 119.493 84.4504 119.241C83.9577 118.987 83.5348 118.586 83.1817 118.038C82.8581 117.456 82.7191 116.782 82.7646 116.018C82.7957 115.031 82.9226 114.055 83.1455 113.088C83.3683 112.121 83.5753 111.155 83.7665 110.191C84.8354 104.661 86.3265 99.2782 88.2399 94.0427C88.4008 93.5878 88.5627 93.1487 88.7257 92.7254C88.9202 92.3001 89.099 91.8758 89.2619 91.4525C89.4544 90.9955 89.6448 90.5069 89.8332 89.9868C90.0216 89.4666 90.2447 88.9918 90.5025 88.5623C90.7898 88.0992 91.1297 87.712 91.5221 87.4008C91.9125 87.0579 92.408 86.867 93.0087 86.8279C93.799 86.7765 94.4793 86.9862 95.0495 87.457C97.339 89.4668 99.2675 91.7858 100.835 94.4139C102.401 97.0105 103.829 99.6795 105.118 102.421C105.78 102.346 106.428 102.304 107.062 102.294C107.696 102.285 108.284 102.532 108.825 103.037C109.296 103.451 109.58 103.908 109.676 104.41C109.804 104.91 109.788 105.403 109.629 105.889C109.502 106.374 109.244 106.803 108.856 107.178C108.499 107.55 108.04 107.818 107.48 107.982C107.868 109.067 108.21 110.188 108.508 111.343C108.835 112.465 109.115 113.605 109.349 114.765L109.371 115.096ZM98.8588 102.828C98.1657 101.445 97.4261 100.08 96.6402 98.7343C95.8838 97.355 95.0377 96.0608 94.102 94.8519C93.5602 96.2839 93.0501 97.7139 92.5715 99.1418C92.1225 100.536 91.7072 101.96 91.3256 103.413C92.8093 103.285 94.1043 103.185 95.2107 103.113C96.3488 103.039 97.5648 102.944 98.8588 102.828ZM119.725 112.852C120.094 113.145 120.405 113.538 120.659 114.029C120.943 114.487 121.101 114.968 121.134 115.474C121.196 115.946 121.115 116.396 120.888 116.824C120.696 117.28 120.307 117.639 119.72 117.899C119.256 118.088 118.737 118.154 118.162 118.096C117.586 118.038 117.005 117.886 116.418 117.638C115.862 117.389 115.349 117.073 114.88 116.691C114.444 116.338 114.116 115.931 113.896 115.469C113.822 115.315 113.763 115.144 113.719 114.957C113.673 114.737 113.645 114.549 113.635 114.391L111.923 88.0738C111.876 87.3467 112.105 86.7128 112.609 86.1721C113.145 85.6293 113.742 85.2889 114.4 85.1508C114.714 85.0987 115.049 85.1245 115.405 85.2283C115.792 85.3301 116.152 85.4972 116.485 85.7295C116.816 85.9302 117.086 86.1825 117.296 86.4862C117.538 86.788 117.67 87.1127 117.693 87.4604C117.746 88.2823 117.817 89.3729 117.906 90.7322C117.994 92.0915 118.091 93.5773 118.196 95.1895C118.332 96.7996 118.457 98.474 118.57 100.213C118.681 101.92 118.772 103.565 118.843 105.147C118.946 106.728 119.041 108.182 119.127 109.51C119.211 110.806 119.263 111.85 119.283 112.642L119.725 112.852ZM132.884 111.996C133.252 112.289 133.564 112.682 133.818 113.173C134.102 113.631 134.26 114.113 134.293 114.618C134.355 115.09 134.273 115.54 134.047 115.968C133.855 116.425 133.465 116.783 132.879 117.044C132.415 117.232 131.896 117.298 131.321 117.24C130.745 117.182 130.164 117.03 129.576 116.782C129.021 116.533 128.508 116.217 128.039 115.835C127.603 115.482 127.275 115.075 127.054 114.613C126.981 114.459 126.922 114.288 126.878 114.101C126.832 113.881 126.804 113.693 126.794 113.535L125.082 87.2179C125.035 86.4908 125.263 85.8569 125.768 85.3162C126.304 84.7734 126.901 84.433 127.559 84.2949C127.873 84.2428 128.208 84.2686 128.564 84.3724C128.951 84.4742 129.311 84.6413 129.644 84.8736C129.974 85.0743 130.245 85.3266 130.455 85.6303C130.697 85.9321 130.829 86.2568 130.852 86.6045C130.905 87.4264 130.976 88.517 131.064 89.8763C131.153 91.2357 131.25 92.7214 131.354 94.3336C131.491 95.9438 131.616 97.6181 131.729 99.3568C131.84 101.064 131.931 102.709 132.002 104.291C132.105 105.872 132.199 107.326 132.286 108.654C132.37 109.95 132.422 110.994 132.442 111.786L132.884 111.996ZM169.85 107.544C170.674 107.522 171.37 107.731 171.938 108.17C172.505 108.577 172.886 109.076 173.083 109.667C173.28 110.257 173.272 110.861 173.058 111.478C172.842 112.063 172.35 112.54 171.58 112.907C171.025 113.166 170.355 113.352 169.569 113.467C168.814 113.579 168.041 113.645 167.248 113.665C166.49 113.715 165.776 113.729 165.108 113.709C164.442 113.721 163.936 113.738 163.588 113.761L160.79 113.942C160.126 113.986 159.545 113.833 159.046 113.484C158.549 113.168 158.174 112.763 157.92 112.272C157.697 111.779 157.615 111.244 157.673 110.669C157.762 110.092 158.028 109.551 158.472 109.046C158.885 108.574 159.454 108.283 160.177 108.173C160.9 108.062 161.627 108.015 162.358 108.031L161.137 89.2537C160.41 89.301 159.73 89.3452 159.098 89.3863C158.463 89.3958 157.816 89.1998 157.155 88.7984C156.658 88.4815 156.316 88.1069 156.129 87.6746C155.94 87.2107 155.879 86.7544 155.945 86.3057C156.041 85.8233 156.233 85.3663 156.523 84.9348C156.812 84.5033 157.188 84.1773 157.649 83.9568C158.08 83.7383 158.532 83.6137 159.006 83.5828C160.618 83.478 162.23 83.3731 163.843 83.2682C165.484 83.1297 167.128 83.0228 168.774 82.9475C168.932 82.9372 169.077 82.9754 169.21 83.062C169.374 83.1465 169.537 83.2153 169.7 83.2682C170.453 83.6319 170.981 84.1848 171.284 84.9271C171.586 85.6693 171.539 86.4184 171.144 87.1742C170.948 87.5679 170.683 87.8868 170.349 88.1307C170.045 88.3409 169.691 88.5068 169.286 88.6284C168.911 88.7163 168.518 88.7736 168.107 88.8003C167.696 88.827 167.301 88.8527 166.922 88.8774L168.149 107.75C168.402 107.733 168.623 107.719 168.813 107.706C169.032 107.66 169.267 107.613 169.518 107.565L169.85 107.544ZM196.443 109.576C196.399 110.372 196.141 111.04 195.668 111.579C195.227 112.115 194.694 112.467 194.07 112.635C193.478 112.8 192.888 112.759 192.301 112.512C191.713 112.264 191.266 111.738 190.96 110.933C190.618 110.066 190.447 109.156 190.449 108.204C190.448 107.22 190.421 106.317 190.368 105.495C190.257 103.788 190.147 102.097 190.038 100.421C189.959 98.7122 189.784 97.0092 189.515 95.3125C189.48 95.2513 189.445 95.206 189.411 95.1764C189.375 95.1152 189.307 95.0403 189.206 94.9516C188.467 94.8093 187.695 94.9071 186.892 95.245C186.088 95.583 185.417 95.9918 184.876 96.4713C184.397 96.9152 183.929 97.5171 183.47 98.2771C183.041 99.0034 182.848 99.6984 182.891 100.362L183.317 106.906C183.35 107.412 183.402 107.964 183.472 108.562C183.543 109.161 183.55 109.748 183.492 110.323C183.465 110.896 183.326 111.429 183.072 111.922C182.818 112.414 182.382 112.792 181.765 113.054C181.425 113.203 181.096 113.272 180.778 113.261C180.492 113.248 180.17 113.19 179.814 113.086C179.233 112.933 178.8 112.628 178.517 112.17C178.235 111.744 178.03 111.281 177.903 110.782C177.773 110.251 177.692 109.748 177.662 109.274C177.66 108.766 177.65 108.37 177.632 108.085C177.585 107.358 177.501 106.316 177.381 104.959C177.291 103.568 177.196 102.114 177.097 100.596C176.999 99.0789 176.905 97.6406 176.817 96.2813C176.726 94.8904 176.657 93.8314 176.61 93.1043C176.565 92.4089 176.733 91.8265 177.115 91.3572C177.495 90.8563 177.95 90.5251 178.479 90.3637C179.038 90.1687 179.625 90.1622 180.24 90.3444C180.884 90.493 181.433 90.87 181.885 91.4755C183.096 90.5714 184.451 89.9277 185.95 89.5445C187.449 89.1613 188.874 89.1162 190.226 89.4092C191.61 89.7001 192.779 90.3384 193.732 91.324C194.717 92.3076 195.284 93.715 195.435 95.5465C195.439 95.6097 195.467 95.7983 195.52 96.1124C195.572 96.4265 195.616 96.868 195.653 97.437L196.443 109.576ZM222.751 105.293C223.348 106.175 223.575 106.986 223.433 107.725C223.322 108.463 223.009 109.023 222.494 109.405C221.981 109.82 221.327 110.005 220.53 109.962C219.768 109.948 218.999 109.601 218.225 108.921C217.501 109.508 216.737 109.97 215.934 110.308C215.133 110.678 214.281 111.003 213.378 111.284C211.976 111.693 210.599 111.75 209.247 111.457C207.928 111.194 206.736 110.684 205.671 109.928C204.606 109.172 203.719 108.214 203.008 107.054C202.296 105.862 201.862 104.557 201.706 103.138C201.508 101.564 201.52 100.039 201.742 98.5648C201.995 97.088 202.446 95.7254 203.095 94.4768C203.744 93.2283 204.625 92.1392 205.74 91.2096C206.885 90.278 208.253 89.5859 209.842 89.1333C210.779 88.8819 211.721 88.7254 212.669 88.6637C213.649 88.6 214.618 88.6163 215.577 88.7127C215.5 88.0193 215.417 87.231 215.328 86.348C215.268 85.4312 215.211 84.5461 215.155 83.6926C215.1 82.8391 215.082 82.0783 215.102 81.4104C215.12 80.7108 215.167 80.2157 215.243 79.925C215.428 79.3416 215.732 78.8932 216.156 78.5799C216.61 78.233 217.089 78.0431 217.595 78.0102C218.099 77.9456 218.597 78.0402 219.09 78.2939C219.612 78.5139 220.033 78.8833 220.352 79.4022C220.426 79.5562 220.515 79.7091 220.62 79.861C220.723 79.9813 220.78 80.1204 220.79 80.2785C221.091 84.4176 221.357 88.5113 221.589 92.5597C221.852 96.606 222.118 100.7 222.388 104.841C222.527 105.022 222.647 105.173 222.751 105.293ZM215.99 103.114C216.047 103.015 216.151 102.913 216.303 102.808C216.487 102.701 216.573 102.568 216.563 102.41C216.477 101.083 216.392 99.7864 216.31 98.522C216.226 97.2259 216.125 95.915 216.007 94.5894C215.238 94.4807 214.441 94.4372 213.617 94.4591C212.793 94.4809 211.992 94.6124 211.215 94.8535C210.468 95.0925 209.777 95.4549 209.142 95.9406C208.539 96.4243 208.074 97.0894 207.748 97.936C207.598 98.549 207.463 99.1609 207.344 99.7718C207.225 100.383 207.168 100.974 207.174 101.545C207.211 102.114 207.327 102.678 207.522 103.236C207.715 103.763 208.017 104.268 208.43 104.749C208.564 104.867 208.715 104.984 208.881 105.1C209.079 105.214 209.441 105.413 209.967 105.696C211.143 105.715 212.242 105.532 213.265 105.148C214.319 104.762 215.228 104.084 215.99 103.114ZM234.417 107.011C234.395 107.647 234.209 108.215 233.861 108.714C233.514 109.244 233.095 109.636 232.604 109.891C232.144 110.143 231.626 110.224 231.048 110.135C230.471 110.045 229.943 109.73 229.463 109.19C229.19 108.89 228.978 108.555 228.826 108.184C228.705 107.779 228.615 107.372 228.557 106.963C228.496 106.523 228.453 106.097 228.426 105.686C228.429 105.242 228.419 104.845 228.396 104.498C228.243 102.635 228.107 100.786 227.988 98.9529C227.9 97.1173 227.78 95.268 227.627 93.405C227.578 92.6463 227.481 91.8907 227.337 91.1382C227.191 90.3541 227.188 89.5765 227.328 88.8055C227.449 88.2262 227.686 87.7187 228.038 87.2831C228.423 86.8454 228.847 86.5321 229.311 86.3432C229.806 86.1523 230.311 86.1036 230.825 86.1971C231.37 86.2886 231.85 86.5907 232.265 87.1035C232.812 87.7028 233.106 88.3186 233.147 88.9508C233.186 89.5514 233.234 90.2943 233.292 91.1794C233.362 92.2542 233.432 93.329 233.501 94.4038C233.571 95.4786 233.656 96.5366 233.755 97.5777C233.886 99.0931 234 100.609 234.099 102.127C234.198 103.644 234.296 105.161 234.395 106.679L234.417 107.011ZM226.403 80.4372C226.453 79.2594 226.793 78.3802 227.422 77.7996C228.08 77.1853 228.79 76.8693 229.55 76.8516C230.309 76.8023 231.023 77.0415 231.692 77.5694C232.393 78.0953 232.793 78.8787 232.893 79.9199C233.026 80.9906 232.796 81.8468 232.203 82.4885C231.639 83.0966 230.965 83.4738 230.181 83.62C229.395 83.7346 228.638 83.5617 227.909 83.1011C227.181 82.6405 226.702 81.8622 226.472 80.7661L226.403 80.4372ZM259.279 104.632C259.591 105.532 259.593 106.294 259.285 106.917C258.976 107.54 258.512 107.967 257.892 108.198C257.306 108.458 256.641 108.486 255.897 108.28C255.154 108.075 254.489 107.61 253.902 106.886C253.06 107.608 252.22 108.123 251.383 108.431C250.58 108.769 249.642 108.989 248.569 109.09C246.961 109.258 245.51 109.162 244.217 108.802C242.926 108.473 241.81 107.911 240.869 107.115C239.96 106.317 239.259 105.299 238.766 104.061C238.271 102.792 238.032 101.315 238.049 99.6318C238.067 98.9322 238.134 98.2453 238.249 97.5712C238.395 96.895 238.558 96.2336 238.739 95.587C238.946 94.8751 239.246 94.1096 239.637 93.2905C240.06 92.4694 240.49 91.7589 240.927 91.159C242.498 88.9616 244.534 87.3213 247.035 86.238C247.467 86.0511 248.059 85.8698 248.809 85.694C249.56 85.5182 250.315 85.4215 251.076 85.4037C251.866 85.3523 252.615 85.3988 253.323 85.5433C254.063 85.6857 254.622 85.9826 255 86.4342C255.309 86.795 255.536 87.1136 255.681 87.3899C255.826 87.6661 255.909 87.9623 255.93 88.2785C255.982 88.5925 256.004 88.9403 255.997 89.3216C256.02 89.6694 256.049 90.1119 256.084 90.6493C256.141 91.5345 256.182 92.4048 256.206 93.2604C256.259 94.0823 256.33 94.919 256.417 95.7705C256.435 96.055 256.46 96.4343 256.491 96.9085C256.52 97.351 256.566 97.8242 256.631 98.3279C256.695 98.8317 256.759 99.3196 256.821 99.7917C256.913 100.23 257.016 100.589 257.129 100.867L259.279 104.632ZM249.088 103.152C249.421 102.908 249.801 102.645 250.227 102.363C250.651 102.05 251.025 101.708 251.351 101.338C250.957 99.6811 250.674 98.017 250.502 96.3456C250.361 94.6723 250.267 92.98 250.219 91.2689C248.813 91.6143 247.573 92.314 246.499 93.368C245.425 94.422 244.709 95.6272 244.353 96.9837C244.198 97.5334 244.076 98.0969 243.987 98.6741C243.897 99.2514 243.886 99.8077 243.953 100.343C244.031 101.068 244.261 101.672 244.642 102.155C245.02 102.607 245.455 102.944 245.946 103.166C246.468 103.386 246.999 103.494 247.538 103.491C248.109 103.485 248.626 103.372 249.088 103.152Z" fill="#100923"/>
<path d="M87.971 262.113C158.086 244.448 154.729 246.975 257.004 250.875" stroke="#FF6E26" stroke-width="2.22313" stroke-linecap="round"/>
<path d="M93.0974 256.212C135.492 247.577 173.095 234.161 249.515 245.45" stroke="#FF6E26" stroke-width="2.22313" stroke-linecap="round"/>
<path d="M91.8327 234.119C91.8083 234.462 91.7109 234.755 91.5405 234.998C91.3712 235.257 91.166 235.441 90.925 235.55C90.6994 235.657 90.4452 235.681 90.1623 235.622C89.8959 235.577 89.6375 235.415 89.387 235.137C89.1704 234.903 89.0372 234.64 88.9875 234.349C88.9521 234.041 88.8942 233.743 88.8135 233.453C88.6045 232.614 88.3244 231.756 87.9735 230.88C87.0173 230.957 86.0684 231.026 85.1267 231.086C84.185 231.147 83.2438 231.216 82.3031 231.292C82.19 231.702 82.0929 232.119 82.0116 232.543C81.9459 232.966 81.8796 233.381 81.8128 233.788C81.7555 234.102 81.7069 234.43 81.667 234.774C81.6262 235.102 81.5056 235.397 81.3054 235.658C81.0628 235.983 80.7882 236.171 80.4814 236.222C80.1911 236.287 79.9179 236.258 79.662 236.135C79.4215 236.011 79.2151 235.815 79.0428 235.547C78.885 235.263 78.8173 234.934 78.8398 234.561C78.8552 234.079 78.9175 233.602 79.0267 233.13C79.1358 232.658 79.2372 232.187 79.3308 231.716C79.8545 229.016 80.5844 226.387 81.5204 223.831C81.5991 223.609 81.6783 223.395 81.758 223.188C81.8531 222.981 81.9405 222.774 82.0202 222.567C82.1144 222.344 82.2075 222.105 82.2997 221.851C82.3919 221.597 82.5009 221.366 82.627 221.156C82.7674 220.93 82.9335 220.741 83.1252 220.589C83.316 220.422 83.558 220.329 83.8513 220.31C84.2373 220.285 84.5694 220.387 84.8478 220.618C85.9651 221.6 86.9062 222.733 87.671 224.017C88.4347 225.285 89.131 226.589 89.7598 227.928C90.083 227.892 90.3995 227.871 90.7092 227.867C91.019 227.862 91.3058 227.984 91.5697 228.23C91.7997 228.432 91.9382 228.656 91.9849 228.901C92.0472 229.145 92.0394 229.386 91.9617 229.623C91.8994 229.86 91.7734 230.069 91.5837 230.252C91.4093 230.434 91.1852 230.565 90.9113 230.644C91.1005 231.175 91.2675 231.722 91.4124 232.286C91.5717 232.834 91.7083 233.391 91.8223 233.957L91.8327 234.119ZM86.7032 228.125C86.3651 227.449 86.0044 226.783 85.621 226.125C85.2521 225.451 84.8393 224.819 84.3827 224.228C84.1177 224.928 83.8682 225.626 83.634 226.323C83.4143 227.004 83.2111 227.699 83.0243 228.408C83.7488 228.346 84.3813 228.298 84.9216 228.263C85.4774 228.227 86.0712 228.181 86.7032 228.125ZM93.1274 225.153C93.2116 224.776 93.3635 224.487 93.5831 224.287C93.8172 224.07 94.0645 223.938 94.3249 223.89C94.6008 223.842 94.8663 223.871 95.1212 223.979C95.3762 224.086 95.5816 224.267 95.7374 224.52C95.9013 224.417 96.0656 224.321 96.2304 224.233C96.3953 224.145 96.5838 224.063 96.7959 223.987C97.767 223.661 98.6408 223.628 99.4171 223.888C100.208 224.132 100.878 224.553 101.429 225.154C101.978 225.738 102.388 226.448 102.659 227.283C102.928 228.103 103.029 228.941 102.96 229.798C102.906 230.639 102.663 231.445 102.232 232.217C101.8 232.973 101.15 233.581 100.28 234.04C99.7105 234.34 99.1034 234.542 98.459 234.646C97.831 234.764 97.1991 234.82 96.5631 234.814C96.5641 234.83 96.5721 234.953 96.587 235.185C96.6174 235.416 96.644 235.708 96.6668 236.063C96.6897 236.418 96.7146 236.804 96.7414 237.221C96.7682 237.638 96.7787 238.04 96.7726 238.428C96.782 238.815 96.773 239.157 96.7456 239.453C96.7346 239.764 96.694 239.976 96.6238 240.089C96.442 240.395 96.2069 240.596 95.9186 240.692C95.6302 240.788 95.3514 240.791 95.082 240.7C94.8136 240.624 94.5711 240.469 94.3545 240.235C94.1543 240.015 94.0433 239.736 94.0214 239.396L93.1132 225.294L93.1274 225.153ZM96.2853 227.973C96.244 228.053 96.2233 228.093 96.2233 228.093C96.2223 228.078 96.1929 228.103 96.1351 228.169L96.3812 231.989C96.6929 232.016 97.0032 232.019 97.3119 231.999C97.6207 231.979 97.9419 231.912 98.2756 231.798C98.9593 231.583 99.486 231.216 99.8555 230.696C100.224 230.161 100.338 229.526 100.198 228.79C100.132 228.485 100.019 228.174 99.8588 227.859C99.7135 227.527 99.5253 227.253 99.2942 227.035C99.0632 226.817 98.798 226.672 98.4987 226.598C98.1995 226.524 97.8695 226.576 97.509 226.755C97.2535 226.88 97.0247 227.057 96.8224 227.287C96.6357 227.516 96.4566 227.745 96.2853 227.973ZM104.755 226.846C104.759 226.908 104.766 226.892 104.775 226.798C104.783 226.689 104.764 226.504 104.716 226.244C104.46 226.121 104.256 225.956 104.103 225.749C103.95 225.542 103.85 225.315 103.803 225.07C103.772 224.824 103.803 224.59 103.898 224.367C104.006 224.127 104.187 223.922 104.439 223.751C104.781 223.527 105.165 223.464 105.59 223.56C106.03 223.656 106.412 223.817 106.737 224.044C107.104 223.726 107.489 223.453 107.893 223.226C108.297 222.998 108.713 222.84 109.142 222.75C109.569 222.645 110.009 222.625 110.463 222.688C110.917 222.752 111.369 222.917 111.82 223.182C112.045 223.307 112.257 223.472 112.457 223.676C112.655 223.865 112.785 224.089 112.849 224.348C112.951 224.729 112.942 225.071 112.822 225.373C112.701 225.66 112.521 225.881 112.283 226.036C112.044 226.175 111.768 226.232 111.457 226.205C111.144 226.163 110.84 226.012 110.544 225.752C110.447 225.697 110.375 225.655 110.327 225.627C110.293 225.583 110.212 225.534 110.085 225.48C109.834 225.434 109.588 225.465 109.347 225.574C109.121 225.681 108.898 225.827 108.677 226.012C108.471 226.18 108.274 226.371 108.086 226.585C107.913 226.782 107.754 226.963 107.61 227.127L107.99 233.032C108.005 233.264 107.973 233.491 107.894 233.713C107.778 234.077 107.57 234.338 107.271 234.497C106.986 234.655 106.688 234.713 106.375 234.671C106.078 234.628 105.805 234.491 105.558 234.258C105.326 234.025 105.197 233.716 105.172 233.33L104.755 226.846ZM117.862 232.466C117.851 232.777 117.76 233.054 117.59 233.297C117.421 233.556 117.216 233.748 116.976 233.872C116.751 233.995 116.498 234.034 116.216 233.991C115.934 233.947 115.677 233.793 115.442 233.529C115.309 233.382 115.205 233.219 115.132 233.037C115.073 232.84 115.029 232.641 115 232.441C114.971 232.226 114.95 232.018 114.937 231.817C114.939 231.6 114.934 231.407 114.923 231.237C114.849 230.327 114.783 229.425 114.725 228.529C114.683 227.633 114.625 226.73 114.551 225.82C114.527 225.449 114.48 225.08 114.41 224.713C114.339 224.33 114.337 223.95 114.406 223.574C114.465 223.291 114.581 223.043 114.754 222.831C114.941 222.617 115.148 222.464 115.375 222.372C115.617 222.279 115.864 222.255 116.115 222.301C116.381 222.346 116.615 222.494 116.817 222.744C117.084 223.037 117.228 223.338 117.248 223.647C117.266 223.94 117.29 224.303 117.318 224.735C117.351 225.26 117.385 225.785 117.419 226.31C117.453 226.834 117.494 227.351 117.542 227.859C117.605 228.6 117.661 229.34 117.708 230.081C117.756 230.822 117.804 231.563 117.852 232.304L117.862 232.466ZM113.957 219.487C113.982 218.912 114.148 218.483 114.455 218.199C114.777 217.899 115.124 217.745 115.495 217.737C115.866 217.713 116.214 217.83 116.541 218.088C116.883 218.345 117.078 218.728 117.126 219.236C117.191 219.759 117.078 220.177 116.789 220.49C116.513 220.787 116.184 220.971 115.801 221.042C115.417 221.098 115.047 221.013 114.692 220.788C114.336 220.563 114.102 220.183 113.99 219.648L113.957 219.487ZM123.802 231.293C123.982 231.436 124.133 231.628 124.257 231.868C124.396 232.092 124.473 232.327 124.489 232.574C124.519 232.805 124.479 233.024 124.369 233.233C124.274 233.456 124.084 233.631 123.798 233.758C123.571 233.85 123.317 233.882 123.037 233.854C122.756 233.825 122.472 233.75 122.185 233.629C121.914 233.507 121.663 233.353 121.434 233.166C121.222 232.994 121.062 232.795 120.954 232.569C120.918 232.494 120.89 232.411 120.868 232.319C120.846 232.212 120.832 232.12 120.827 232.043L120 219.191C119.977 218.836 120.089 218.526 120.335 218.262C120.597 217.997 120.889 217.831 121.21 217.764C121.363 217.739 121.527 217.752 121.701 217.802C121.89 217.852 122.066 217.934 122.228 218.047C122.389 218.146 122.521 218.269 122.624 218.417C122.742 218.565 122.806 218.723 122.817 218.893C122.843 219.294 122.877 219.827 122.92 220.491C122.963 221.155 123.01 221.88 123.06 222.668C123.126 223.454 123.187 224.272 123.242 225.121C123.295 225.954 123.339 226.758 123.373 227.53C123.423 228.302 123.469 229.012 123.511 229.661C123.551 230.294 123.577 230.804 123.586 231.191L123.802 231.293ZM142.338 218.938C141.756 219.534 141.247 220.171 140.81 220.85C140.388 221.513 139.999 222.22 139.644 222.971C139.945 222.828 140.256 222.715 140.576 222.632C140.896 222.55 141.234 222.505 141.59 222.497C142.086 222.496 142.538 222.537 142.947 222.619C143.355 222.701 143.791 222.844 144.253 223.047C144.861 223.333 145.33 223.752 145.66 224.305C146.004 224.841 146.228 225.431 146.332 226.075C146.435 226.72 146.431 227.371 146.318 228.029C146.205 228.688 146.011 229.274 145.734 229.788C145.36 230.478 144.819 230.994 144.113 231.334C143.406 231.674 142.683 231.875 141.943 231.938C141.173 232.019 140.414 231.921 139.668 231.643C138.812 231.342 138.088 230.815 137.497 230.062C136.873 229.281 136.47 228.439 136.288 227.536C136.12 226.617 136.099 225.696 136.226 224.773C136.353 223.85 136.604 222.942 136.981 222.05C137.356 221.142 137.79 220.301 138.283 219.525C138.564 219.073 138.875 218.611 139.217 218.139C139.573 217.651 139.965 217.238 140.393 216.901C140.746 216.615 141.103 216.499 141.463 216.553C141.822 216.592 142.118 216.735 142.351 216.984C142.583 217.217 142.711 217.519 142.735 217.889C142.774 218.243 142.641 218.593 142.338 218.938ZM139.248 226.927C139.221 226.99 139.164 227.072 139.078 227.17C139.096 227.215 139.124 227.283 139.161 227.374C139.197 227.465 139.234 227.548 139.27 227.623C139.305 227.698 139.324 227.751 139.326 227.782C139.344 227.812 139.327 227.79 139.276 227.715C139.381 227.91 139.533 228.102 139.731 228.291C139.928 228.464 140.116 228.607 140.294 228.72C140.423 228.804 140.56 228.881 140.704 228.949C140.863 229.016 141.029 229.06 141.2 229.08C141.512 229.106 141.821 229.094 142.128 229.043C142.435 228.992 142.721 228.858 142.986 228.639C143.193 228.486 143.342 228.275 143.433 228.006C143.539 227.72 143.59 227.43 143.586 227.136C143.582 226.826 143.525 226.535 143.414 226.263C143.302 225.976 143.141 225.761 142.931 225.62C142.704 225.464 142.457 225.371 142.192 225.342C141.942 225.311 141.687 225.32 141.426 225.368C141.013 225.441 140.658 225.588 140.362 225.809C140.138 225.947 139.932 226.115 139.743 226.313C139.57 226.511 139.405 226.715 139.248 226.927ZM170.629 227.58C171.029 227.786 171.288 228.064 171.403 228.413C171.518 228.747 171.523 229.072 171.419 229.389C171.315 229.69 171.105 229.928 170.791 230.104C170.493 230.293 170.124 230.34 169.684 230.245C169.811 230.283 169.842 230.297 169.78 230.285C169.732 230.273 169.638 230.248 169.496 230.21C169.369 230.172 169.227 230.127 169.069 230.075C168.911 230.039 168.801 230.007 168.737 229.98C168.373 229.864 168.015 229.724 167.664 229.561C167.326 229.381 166.989 229.201 166.652 229.022C166.347 229.336 166.01 229.637 165.641 229.924C165.271 230.196 164.883 230.43 164.477 230.627C164.071 230.823 163.646 230.959 163.201 231.034C162.757 231.125 162.301 231.139 161.832 231.076C161.018 230.958 160.281 230.703 159.62 230.312C158.974 229.904 158.453 229.402 158.058 228.808C157.679 228.212 157.45 227.545 157.371 226.806C157.292 226.051 157.42 225.276 157.756 224.479C157.947 224.064 158.194 223.699 158.5 223.385C158.819 223.054 159.156 222.746 159.51 222.459C159.304 222.147 159.112 221.826 158.936 221.496C158.759 221.151 158.605 220.805 158.474 220.457C158.361 220.154 158.288 219.856 158.254 219.564C158.219 219.272 158.208 218.97 158.219 218.659C158.237 218.472 158.28 218.291 158.346 218.116C158.428 217.941 158.502 217.765 158.568 217.591C158.813 217.063 159.158 216.646 159.604 216.338C160.048 216.015 160.53 215.798 161.05 215.687C161.57 215.576 162.097 215.573 162.631 215.678C163.179 215.767 163.671 215.952 164.108 216.234C164.545 216.516 164.902 216.896 165.181 217.374C165.475 217.836 165.626 218.384 165.636 219.019C165.628 219.376 165.596 219.719 165.54 220.048C165.498 220.361 165.402 220.677 165.252 220.997C164.944 221.761 164.444 222.421 163.752 222.977C164.133 223.355 164.506 223.742 164.873 224.137C165.255 224.531 165.659 224.908 166.085 225.268C166.326 224.912 166.55 224.548 166.759 224.178C166.983 223.807 167.199 223.437 167.408 223.067C167.52 222.874 167.635 222.626 167.756 222.324C167.876 222.021 168.038 221.778 168.243 221.595C168.492 221.362 168.763 221.236 169.056 221.217C169.349 221.198 169.617 221.258 169.858 221.398C170.099 221.522 170.29 221.719 170.431 221.989C170.572 222.243 170.614 222.535 170.557 222.864C170.431 223.554 170.15 224.239 169.713 224.918C169.292 225.596 168.867 226.221 168.439 226.791C168.806 226.953 169.164 227.1 169.513 227.233C169.863 227.365 170.235 227.481 170.629 227.58ZM163.357 228.048C163.522 227.96 163.679 227.865 163.827 227.762C163.975 227.644 164.122 227.526 164.27 227.408C163.746 226.977 163.237 226.537 162.743 226.088C162.248 225.624 161.767 225.135 161.3 224.623C161.078 224.792 160.858 224.977 160.638 225.177C160.417 225.362 160.27 225.604 160.196 225.903C160.085 226.344 160.118 226.737 160.296 227.083C160.488 227.427 160.747 227.705 161.07 227.916C161.408 228.111 161.78 228.227 162.185 228.263C162.606 228.298 162.997 228.226 163.357 228.048ZM161.215 219.699C161.26 219.913 161.336 220.125 161.442 220.335C161.564 220.544 161.693 220.738 161.828 220.915C162.006 220.779 162.204 220.612 162.424 220.412C162.658 220.195 162.822 219.975 162.916 219.752C163.05 219.418 163.086 219.137 163.025 218.908C162.979 218.678 162.882 218.506 162.736 218.392C162.588 218.262 162.413 218.195 162.211 218.193C162.009 218.175 161.818 218.218 161.638 218.323C161.474 218.426 161.346 218.597 161.253 218.836C161.159 219.059 161.146 219.347 161.215 219.699ZM187.256 228.648C187.166 228.933 187.018 229.159 186.812 229.328C186.606 229.512 186.381 229.627 186.136 229.674C185.908 229.735 185.666 229.719 185.412 229.627C185.175 229.549 184.963 229.385 184.776 229.133C184.557 228.853 184.458 228.534 184.482 228.176C184.52 227.801 184.552 227.466 184.58 227.17C184.761 225.406 185.114 223.67 185.64 221.962C186.165 220.254 186.891 218.642 187.816 217.125L182.12 217.492C181.703 217.519 181.363 217.425 181.102 217.209C180.84 216.993 180.676 216.733 180.609 216.427C180.542 216.106 180.576 215.793 180.712 215.49C180.862 215.17 181.133 214.928 181.525 214.763C181.692 214.706 181.868 214.672 182.054 214.66C183.505 214.566 184.94 214.474 186.361 214.382C187.795 214.274 189.239 214.181 190.691 214.103C190.969 214.085 191.24 214.2 191.504 214.446C191.767 214.693 191.923 214.946 191.971 215.207C192.032 215.668 191.941 216.061 191.698 216.387C191.456 216.713 191.214 217.046 190.972 217.387C190.718 217.775 190.48 218.178 190.259 218.596C190.037 218.997 189.823 219.407 189.618 219.823C188.948 221.215 188.419 222.628 188.03 224.064C187.641 225.484 187.403 226.964 187.317 228.505L187.256 228.648ZM193.25 225.914C193.415 225.593 193.633 225.37 193.904 225.244C194.175 225.118 194.451 225.077 194.733 225.12C195.014 225.149 195.262 225.265 195.476 225.468C195.707 225.67 195.848 225.948 195.902 226.301C195.949 226.546 195.918 226.78 195.808 227.004C195.714 227.228 195.627 227.45 195.549 227.672C195.35 228.197 195.143 228.721 194.929 229.247C194.732 229.787 194.509 230.305 194.262 230.801C194.111 231.105 193.9 231.313 193.628 231.423C193.357 231.549 193.08 231.59 192.799 231.546C192.517 231.503 192.261 231.38 192.031 231.177C191.816 230.974 191.69 230.703 191.653 230.365L193.25 225.914ZM212.847 216.071C212.549 215.548 212.2 215.291 211.797 215.302C211.394 215.297 210.948 215.48 210.461 215.853C210.224 216.023 209.968 216.257 209.692 216.554C209.432 216.849 209.154 217.1 208.857 217.305C208.56 217.51 208.25 217.623 207.925 217.644C207.617 217.664 207.295 217.491 206.962 217.125C206.679 216.817 206.557 216.492 206.597 216.148C206.652 215.804 206.786 215.477 206.999 215.169C207.21 214.845 207.463 214.55 207.755 214.283C208.064 214.015 208.321 213.797 208.527 213.629C209.013 213.226 209.551 212.912 210.141 212.688C210.73 212.448 211.319 212.325 211.907 212.318C212.511 212.311 213.078 212.445 213.607 212.72C214.151 212.98 214.613 213.415 214.994 214.026C215.357 214.608 215.604 215.204 215.737 215.815C215.869 216.427 215.885 217.031 215.784 217.626C215.682 218.222 215.471 218.793 215.15 219.341C214.844 219.888 214.426 220.38 213.896 220.817C213.573 221.086 213.21 221.349 212.808 221.608C212.421 221.865 212.044 222.145 211.676 222.448C211.324 222.75 211.012 223.08 210.74 223.439C210.484 223.796 210.325 224.217 210.263 224.702C210.433 224.691 210.681 224.69 211.007 224.7C211.349 224.709 211.713 224.709 212.1 224.7C212.503 224.689 212.911 224.655 213.326 224.597C213.756 224.539 214.138 224.444 214.47 224.314C214.413 224.38 214.369 224.422 214.339 224.439C214.556 224.193 214.758 223.97 214.947 223.772C215.15 223.558 215.438 223.454 215.811 223.461C216.074 223.459 216.312 223.537 216.523 223.694C216.749 223.834 216.924 224.017 217.047 224.241C217.17 224.466 217.232 224.718 217.235 224.997C217.252 225.259 217.175 225.504 217.003 225.732C216.676 226.188 216.306 226.576 215.892 226.897C215.479 227.218 214.979 227.397 214.392 227.435L208.881 227.79C208.526 227.813 208.21 227.717 207.932 227.502C207.655 227.288 207.467 227.013 207.368 226.679C207.289 226.42 207.265 226.158 207.294 225.893C207.339 225.626 207.368 225.361 207.382 225.096C207.434 224.458 207.536 223.877 207.689 223.356C207.841 222.835 208.051 222.356 208.317 221.92C208.584 221.485 208.907 221.084 209.286 220.719C209.68 220.337 210.137 219.966 210.656 219.607C210.894 219.452 211.183 219.248 211.523 218.993C211.864 218.739 212.171 218.456 212.445 218.143C212.72 217.831 212.908 217.501 213.009 217.154C213.125 216.79 213.071 216.429 212.847 216.071ZM227.375 219.972C227.438 219.503 227.441 218.953 227.385 218.321C227.329 217.689 227.182 217.086 226.943 216.512C226.72 215.937 226.395 215.462 225.968 215.087C225.556 214.71 225.011 214.544 224.331 214.588C223.59 214.635 223.011 214.913 222.594 215.42C222.178 215.928 221.876 216.536 221.689 217.246C221.517 217.939 221.431 218.658 221.432 219.402C221.433 220.13 221.488 220.747 221.598 221.251C221.666 221.588 221.766 221.938 221.898 222.301C222.046 222.664 222.222 222.994 222.427 223.29C222.632 223.587 222.88 223.819 223.169 223.987C223.475 224.153 223.827 224.216 224.228 224.174C224.782 224.108 225.237 223.954 225.593 223.714C225.964 223.458 226.27 223.151 226.511 222.795C226.75 222.423 226.933 222.008 227.058 221.55C227.198 221.076 227.299 220.589 227.36 220.089L227.375 219.972ZM230.068 220.264C229.94 221.404 229.624 222.509 229.119 223.58C228.614 224.636 227.872 225.513 226.894 226.212C226.4 226.491 225.87 226.688 225.304 226.802C224.738 226.916 224.174 226.945 223.612 226.888C223.05 226.831 222.513 226.672 222 226.41C221.488 226.164 221.039 225.814 220.653 225.358C219.814 224.358 219.242 223.302 218.938 222.19C218.649 221.077 218.565 219.888 218.685 218.625C218.767 217.736 218.951 216.849 219.235 215.962C219.534 215.075 219.979 214.287 220.57 213.597C221.046 213.04 221.584 212.61 222.185 212.308C222.784 211.99 223.4 211.803 224.032 211.747C224.679 211.69 225.32 211.765 225.953 211.972C226.602 212.178 227.205 212.511 227.762 212.972C228.318 213.432 228.763 213.953 229.095 214.537C229.441 215.103 229.697 215.699 229.861 216.324C230.025 216.949 230.122 217.602 230.15 218.282C230.177 218.947 230.15 219.607 230.068 220.264ZM238.551 214.416C238.254 213.892 237.904 213.636 237.502 213.646C237.098 213.641 236.653 213.825 236.165 214.198C235.928 214.368 235.672 214.601 235.397 214.898C235.137 215.194 234.858 215.444 234.561 215.649C234.265 215.855 233.954 215.968 233.63 215.988C233.321 216.008 233 215.835 232.666 215.469C232.383 215.162 232.261 214.836 232.301 214.493C232.357 214.148 232.491 213.822 232.703 213.514C232.915 213.19 233.167 212.895 233.46 212.628C233.768 212.36 234.026 212.142 234.232 211.974C234.717 211.57 235.255 211.257 235.845 211.033C236.434 210.793 237.023 210.67 237.612 210.663C238.216 210.655 238.783 210.789 239.312 211.065C239.856 211.325 240.318 211.76 240.698 212.371C241.061 212.952 241.309 213.548 241.441 214.16C241.574 214.772 241.589 215.375 241.488 215.971C241.387 216.566 241.176 217.138 240.855 217.686C240.549 218.232 240.131 218.724 239.601 219.162C239.277 219.43 238.914 219.694 238.512 219.952C238.126 220.21 237.749 220.49 237.381 220.793C237.028 221.094 236.716 221.425 236.445 221.783C236.189 222.141 236.03 222.562 235.968 223.046C236.138 223.035 236.386 223.035 236.712 223.045C237.054 223.054 237.418 223.054 237.805 223.044C238.207 223.034 238.616 223 239.031 222.942C239.461 222.883 239.842 222.789 240.175 222.659C240.117 222.725 240.073 222.766 240.043 222.784C240.26 222.537 240.463 222.315 240.652 222.117C240.855 221.902 241.143 221.798 241.515 221.805C241.779 221.804 242.016 221.882 242.228 222.038C242.454 222.179 242.628 222.361 242.751 222.586C242.874 222.811 242.937 223.062 242.939 223.341C242.956 223.604 242.879 223.849 242.708 224.077C242.381 224.532 242.01 224.92 241.597 225.241C241.184 225.563 240.684 225.742 240.097 225.78L234.586 226.135C234.231 226.158 233.914 226.062 233.637 225.847C233.36 225.632 233.171 225.358 233.072 225.023C232.994 224.765 232.969 224.503 232.999 224.237C233.043 223.971 233.073 223.705 233.087 223.441C233.139 222.802 233.241 222.222 233.393 221.701C233.546 221.179 233.755 220.701 234.022 220.265C234.288 219.829 234.611 219.429 234.991 219.063C235.385 218.681 235.841 218.311 236.361 217.952C236.599 217.797 236.888 217.592 237.228 217.338C237.568 217.083 237.875 216.8 238.15 216.488C238.424 216.176 238.612 215.846 238.714 215.498C238.83 215.134 238.776 214.773 238.551 214.416ZM253.472 224.035C253.462 224.361 253.365 224.654 253.18 224.914C253.01 225.173 252.798 225.365 252.543 225.49C252.303 225.629 252.043 225.669 251.76 225.61C251.493 225.565 251.25 225.395 251.029 225.099C250.893 224.906 250.793 224.68 250.73 224.421C250.667 224.161 250.618 223.893 250.585 223.616C250.566 223.323 250.556 223.045 250.554 222.781C250.553 222.518 250.538 222.286 250.51 222.086C249.923 222.124 249.321 222.163 248.703 222.203C248.085 222.227 247.482 222.25 246.894 222.273C246.709 222.285 246.516 222.297 246.315 222.31C246.115 222.323 245.913 222.32 245.71 222.302C245.522 222.268 245.341 222.218 245.166 222.152C244.99 222.07 244.835 221.948 244.7 221.786C244.481 221.506 244.377 221.21 244.388 220.9C244.413 220.572 244.485 220.25 244.604 219.932C244.739 219.613 244.897 219.309 245.08 219.018C245.263 218.727 245.402 218.478 245.497 218.27C245.852 217.519 246.215 216.782 246.587 216.061C246.974 215.323 247.345 214.586 247.7 213.85C247.81 213.626 247.925 213.37 248.046 213.084C248.167 212.797 248.288 212.51 248.41 212.223C248.546 211.935 248.691 211.662 248.845 211.404C248.998 211.131 249.161 210.896 249.334 210.699C249.552 210.468 249.791 210.32 250.05 210.257C250.31 210.194 250.558 210.201 250.796 210.279C251.033 210.357 251.244 210.498 251.427 210.703C251.61 210.893 251.727 211.141 251.778 211.448C251.805 211.632 251.78 211.843 251.702 212.081C251.625 212.318 251.531 212.557 251.423 212.796C251.313 213.02 251.203 213.229 251.091 213.422C250.978 213.6 250.902 213.729 250.86 213.809C250.669 214.209 250.477 214.601 250.285 214.986C250.093 215.37 249.9 215.754 249.708 216.139C249.449 216.683 249.189 217.219 248.928 217.747C248.668 218.275 248.399 218.804 248.123 219.334C248.511 219.34 248.875 219.332 249.215 219.31C249.57 219.287 249.925 219.264 250.28 219.241C250.268 218.823 250.242 218.414 250.201 218.014C250.159 217.598 250.171 217.194 250.239 216.802C250.295 216.473 250.442 216.216 250.678 216.03C250.928 215.828 251.2 215.71 251.492 215.675C251.784 215.641 252.059 215.693 252.316 215.831C252.587 215.953 252.78 216.181 252.895 216.515C252.971 216.743 253.026 216.987 253.058 217.249C253.089 217.495 253.105 217.742 253.106 217.99C253.122 218.237 253.128 218.461 253.126 218.663C253.138 218.848 253.147 218.987 253.153 219.079C253.353 219.066 253.538 219.047 253.707 219.02C253.89 218.978 254.077 218.989 254.267 219.054C254.505 219.132 254.722 219.257 254.919 219.431C255.131 219.588 255.29 219.771 255.397 219.981C255.503 220.191 255.541 220.414 255.509 220.648C255.493 220.882 255.377 221.114 255.159 221.345C254.898 221.626 254.622 221.791 254.33 221.84C254.039 221.89 253.708 221.927 253.338 221.951L253.472 224.035Z" fill="#100923"/>
<path opacity="0.8" d="M208.559 16.032C208.439 12.2262 207.89 8.47493 207.742 4.66915C207.689 3.29858 207.551 1.47953 207.742 -3.08762e-05L112.268 5.7212C113.048 8.50427 112.752 13.1567 112.856 15.4033C113.183 22.5119 113.501 29.6246 113.624 36.7416L208.846 31.0329C208.152 26.1835 208.722 21.0323 208.562 16.0278L208.559 16.032Z" fill="#FF9B26"/>
<defs>
<linearGradient id="paint0_linear_1265_1033" x1="227.786" y1="119.591" x2="150.935" y2="183.144" gradientUnits="userSpaceOnUse">
<stop stop-color="#FFB004"/>
<stop offset="0.186326" stop-color="#FF7E00"/>
<stop offset="0.420531" stop-color="#FF2FAE"/>
<stop offset="0.653912" stop-color="#660EA2"/>
<stop offset="1" stop-color="#03D2F2"/>
</linearGradient>
</defs>
</svg>
